<?xml version="1.0" encoding="us-ascii" standalone="no"?><svg xmlns="http://www.w3.org/2000/svg" xmlns:xlink="http://www.w3.org/1999/xlink" contentStyleType="text/css" height="331px" preserveAspectRatio="none" style="width:972px;height:331px;" version="1.1" viewBox="0 0 972 331" width="972px" zoomAndPan="magnify"><defs/><g><text fill="#000000" font-family="sans-serif" font-size="14" font-weight="bold" lengthAdjust="spacing" textLength="332" x="319" y="29.5332">ESRGAN Architecture for SAR Super-Resolution</text><rect fill="#FFFFFF" height="21.0938" style="stroke:#181818;stroke-width:1.0;" width="10" x="47.5" y="83.7031"/><rect fill="#FFFFFF" height="29.0938" style="stroke:#181818;stroke-width:1.0;" width="10" x="171.5" y="104.7969"/><rect fill="#FFFFFF" height="29.0938" style="stroke:#181818;stroke-width:1.0;" width="10" x="308.5" y="133.8906"/><rect fill="#FFFFFF" height="29.0938" style="stroke:#181818;stroke-width:1.0;" width="10" x="474.5" y="162.9844"/><rect fill="#FFFFFF" height="29.0938" style="stroke:#181818;stroke-width:1.0;" width="10" x="637.5" y="192.0781"/><rect fill="#FFFFFF" height="29.0938" style="stroke:#181818;stroke-width:1.0;" width="10" x="786.5" y="250.2656"/><rect fill="#FFFFFF" height="29.0938" style="stroke:#181818;stroke-width:1.0;" width="10" x="911.5" y="221.1719"/><line style="stroke:#181818;stroke-width:0.5;stroke-dasharray:5.0,5.0;" x1="52" x2="52" y1="73.7031" y2="297.3594"/><line style="stroke:#181818;stroke-width:0.5;stroke-dasharray:5.0,5.0;" x1="176" x2="176" y1="73.7031" y2="297.3594"/><line style="stroke:#181818;stroke-width:0.5;stroke-dasharray:5.0,5.0;" x1="313" x2="313" y1="73.7031" y2="297.3594"/><line style="stroke:#181818;stroke-width:0.5;stroke-dasharray:5.0,5.0;" x1="479.5" x2="479.5" y1="73.7031" y2="297.3594"/><line style="stroke:#181818;stroke-width:0.5;stroke-dasharray:5.0,5.0;" x1="642.5" x2="642.5" y1="73.7031" y2="297.3594"/><line style="stroke:#181818;stroke-width:0.5;stroke-dasharray:5.0,5.0;" x1="791.5" x2="791.5" y1="73.7031" y2="297.3594"/><line style="stroke:#181818;stroke-width:0.5;stroke-dasharray:5.0,5.0;" x1="916" x2="916" y1="73.7031" y2="297.3594"/><rect fill="#E2E2F0" height="29.0938" rx="2.5" ry="2.5" style="stroke:#181818;stroke-width:0.5;" width="95" x="5" y="43.6094"/><text fill="#000000" font-family="sans-serif" font-size="12" lengthAdjust="spacing" textLength="81" x="12" y="63.0664">LR SAR Image</text><rect fill="#E2E2F0" height="29.0938" rx="2.5" ry="2.5" style="stroke:#181818;stroke-width:0.5;" width="95" x="5" y="296.3594"/><text fill="#000000" font-family="sans-serif" font-size="12" lengthAdjust="spacing" textLength="81" x="12" y="315.8164">LR SAR Image</text><rect fill="#E2E2F0" height="29.0938" rx="2.5" ry="2.5" style="stroke:#181818;stroke-width:0.5;" width="107" x="123" y="43.6094"/><text fill="#000000" font-family="sans-serif" font-size="12" lengthAdjust="spacing" textLength="93" x="130" y="63.0664">Initial Conv Layer</text><rect fill="#E2E2F0" height="29.0938" rx="2.5" ry="2.5" style="stroke:#181818;stroke-width:0.5;" width="107" x="123" y="296.3594"/><text fill="#000000" font-family="sans-serif" font-size="12" lengthAdjust="spacing" textLength="93" x="130" y="315.8164">Initial Conv Layer</text><rect fill="#E2E2F0" height="29.0938" rx="2.5" ry="2.5" style="stroke:#181818;stroke-width:0.5;" width="89" x="269" y="43.6094"/><text fill="#000000" font-family="sans-serif" font-size="12" lengthAdjust="spacing" textLength="75" x="276" y="63.0664">RRDB Blocks</text><rect fill="#E2E2F0" height="29.0938" rx="2.5" ry="2.5" style="stroke:#181818;stroke-width:0.5;" width="89" x="269" y="296.3594"/><text fill="#000000" font-family="sans-serif" font-size="12" lengthAdjust="spacing" textLength="75" x="276" y="315.8164">RRDB Blocks</text><rect fill="#E2E2F0" height="29.0938" rx="2.5" ry="2.5" style="stroke:#181818;stroke-width:0.5;" width="122" x="418.5" y="43.6094"/><text fill="#000000" font-family="sans-serif" font-size="12" lengthAdjust="spacing" textLength="108" x="425.5" y="63.0664">Upsampling Layers</text><rect fill="#E2E2F0" height="29.0938" rx="2.5" ry="2.5" style="stroke:#181818;stroke-width:0.5;" width="122" x="418.5" y="296.3594"/><text fill="#000000" font-family="sans-serif" font-size="12" lengthAdjust="spacing" textLength="108" x="425.5" y="315.8164">Upsampling Layers</text><rect fill="#E2E2F0" height="29.0938" rx="2.5" ry="2.5" style="stroke:#181818;stroke-width:0.5;" width="108" x="588.5" y="43.6094"/><text fill="#000000" font-family="sans-serif" font-size="12" lengthAdjust="spacing" textLength="94" x="595.5" y="63.0664">Generator Output</text><rect fill="#E2E2F0" height="29.0938" rx="2.5" ry="2.5" style="stroke:#181818;stroke-width:0.5;" width="108" x="588.5" y="296.3594"/><text fill="#000000" font-family="sans-serif" font-size="12" lengthAdjust="spacing" textLength="94" x="595.5" y="315.8164">Generator Output</text><rect fill="#E2E2F0" height="29.0938" rx="2.5" ry="2.5" style="stroke:#181818;stroke-width:0.5;" width="88" x="747.5" y="43.6094"/><text fill="#000000" font-family="sans-serif" font-size="12" lengthAdjust="spacing" textLength="74" x="754.5" y="63.0664">Discriminator</text><rect fill="#E2E2F0" height="29.0938" rx="2.5" ry="2.5" style="stroke:#181818;stroke-width:0.5;" width="88" x="747.5" y="296.3594"/><text fill="#000000" font-family="sans-serif" font-size="12" lengthAdjust="spacing" textLength="74" x="754.5" y="315.8164">Discriminator</text><rect fill="#E2E2F0" height="29.0938" rx="2.5" ry="2.5" style="stroke:#181818;stroke-width:0.5;" width="99" x="867" y="43.6094"/><text fill="#000000" font-family="sans-serif" font-size="12" lengthAdjust="spacing" textLength="85" x="874" y="63.0664">Real HR Image</text><rect fill="#E2E2F0" height="29.0938" rx="2.5" ry="2.5" style="stroke:#181818;stroke-width:0.5;" width="99" x="867" y="296.3594"/><text fill="#000000" font-family="sans-serif" font-size="12" lengthAdjust="spacing" textLength="85" x="874" y="315.8164">Real HR Image</text><rect fill="#FFFFFF" height="21.0938" style="stroke:#181818;stroke-width:1.0;" width="10" x="47.5" y="83.7031"/><rect fill="#FFFFFF" height="29.0938" style="stroke:#181818;stroke-width:1.0;" width="10" x="171.5" y="104.7969"/><rect fill="#FFFFFF" height="29.0938" style="stroke:#181818;stroke-width:1.0;" width="10" x="308.5" y="133.8906"/><rect fill="#FFFFFF" height="29.0938" style="stroke:#181818;stroke-width:1.0;" width="10" x="474.5" y="162.9844"/><rect fill="#FFFFFF" height="29.0938" style="stroke:#181818;stroke-width:1.0;" width="10" x="637.5" y="192.0781"/><rect fill="#FFFFFF" height="29.0938" style="stroke:#181818;stroke-width:1.0;" width="10" x="786.5" y="250.2656"/><rect fill="#FFFFFF" height="29.0938" style="stroke:#181818;stroke-width:1.0;" width="10" x="911.5" y="221.1719"/><polygon fill="#181818" points="159.5,100.7969,169.5,104.7969,159.5,108.7969,163.5,104.7969" style="stroke:#181818;stroke-width:1.0;"/><line style="stroke:#181818;stroke-width:1.0;" x1="52.5" x2="165.5" y1="104.7969" y2="104.7969"/><text fill="#000000" font-family="sans-serif" font-size="12" font-weight="bold" lengthAdjust="spacing" textLength="7" x="64.5" y="100.1602">1</text><text fill="#000000" font-family="sans-serif" font-size="12" lengthAdjust="spacing" textLength="84" x="75.5" y="100.1602">Input LR image</text><polygon fill="#181818" points="296.5,129.8906,306.5,133.8906,296.5,137.8906,300.5,133.8906" style="stroke:#181818;stroke-width:1.0;"/><line style="stroke:#181818;stroke-width:1.0;" x1="176.5" x2="302.5" y1="133.8906" y2="133.8906"/><text fill="#000000" font-family="sans-serif" font-size="12" font-weight="bold" lengthAdjust="spacing" textLength="7" x="188.5" y="129.2539">2</text><text fill="#000000" font-family="sans-serif" font-size="12" lengthAdjust="spacing" textLength="97" x="199.5" y="129.2539">Feature extraction</text><polygon fill="#181818" points="462.5,158.9844,472.5,162.9844,462.5,166.9844,466.5,162.9844" style="stroke:#181818;stroke-width:1.0;"/><line style="stroke:#181818;stroke-width:1.0;" x1="313.5" x2="468.5" y1="162.9844" y2="162.9844"/><text fill="#000000" font-family="sans-serif" font-size="12" font-weight="bold" lengthAdjust="spacing" textLength="7" x="325.5" y="158.3477">3</text><text fill="#000000" font-family="sans-serif" font-size="12" lengthAdjust="spacing" textLength="126" x="336.5" y="158.3477">Deep residual learning</text><polygon fill="#181818" points="625.5,188.0781,635.5,192.0781,625.5,196.0781,629.5,192.0781" style="stroke:#181818;stroke-width:1.0;"/><line style="stroke:#181818;stroke-width:1.0;" x1="479.5" x2="631.5" y1="192.0781" y2="192.0781"/><text fill="#000000" font-family="sans-serif" font-size="12" font-weight="bold" lengthAdjust="spacing" textLength="7" x="491.5" y="187.4414">4</text><text fill="#000000" font-family="sans-serif" font-size="12" lengthAdjust="spacing" textLength="123" x="502.5" y="187.4414">Upsampled SR image</text><polygon fill="#181818" points="779.5,217.1719,789.5,221.1719,779.5,225.1719,783.5,221.1719" style="stroke:#181818;stroke-width:1.0;"/><line style="stroke:#181818;stroke-width:1.0;" x1="642.5" x2="785.5" y1="221.1719" y2="221.1719"/><text fill="#000000" font-family="sans-serif" font-size="12" font-weight="bold" lengthAdjust="spacing" textLength="7" x="669" y="216.5352">5</text><text fill="#000000" font-family="sans-serif" font-size="12" lengthAdjust="spacing" textLength="85" x="680" y="216.5352">Fake SR image</text><polygon fill="#181818" points="807.5,246.2656,797.5,250.2656,807.5,254.2656,803.5,250.2656" style="stroke:#181818;stroke-width:1.0;"/><line style="stroke:#181818;stroke-width:1.0;" x1="801.5" x2="915.5" y1="250.2656" y2="250.2656"/><text fill="#000000" font-family="sans-serif" font-size="12" font-weight="bold" lengthAdjust="spacing" textLength="7" x="808.5" y="245.6289">6</text><text fill="#000000" font-family="sans-serif" font-size="12" lengthAdjust="spacing" textLength="85" x="819.5" y="245.6289">Real HR image</text><polygon fill="#181818" points="653.5,275.3594,643.5,279.3594,653.5,283.3594,649.5,279.3594" style="stroke:#181818;stroke-width:1.0;"/><line style="stroke:#181818;stroke-width:1.0;stroke-dasharray:2.0,2.0;" x1="647.5" x2="790.5" y1="279.3594" y2="279.3594"/><text fill="#000000" font-family="sans-serif" font-size="12" font-weight="bold" lengthAdjust="spacing" textLength="7" x="657" y="274.7227">7</text><text fill="#000000" font-family="sans-serif" font-size="12" lengthAdjust="spacing" textLength="109" x="668" y="274.7227">Real/Fake feedback</text><!--SRC=[TPJTZjem48NlynIZxKMlKCLUhaIbi5b-9Df52Jp0u0nW4Unqx43Rf-_OopREbd8NptTcvXnRUEqRWfUgdEVV8MTrr9wKxvXWRncgl8IgQub79JdRT5vRasNkf4sBZ6VOeJeTs7QcVhQDy9xHE2cHyGdbZbZRgpO7s6FZAAdapFOwiyPN-ZV1-34fhP6zLhf5u-y35Vteo2YAFJP7hKw6d8DnElY6V9C27YXlzC60akM84sgbzxJIXgQMQ-8t8xj6dDrZFXZ-z19__-tMx_MOPTXvQxhpJgPdds4ocQGcNJZ8slu07bPbl83bMNP_07ImAeV0qcYliO5dQowmmb_44NiU3x6oBAOmRQmwkLWFtqDYspeyjqsuejZcZTkkXzIS335wiVtQ-RRp4Pg_RZT3hD1EiJvh4z3851_s8TbvaHfRb26HqMW4_OoPvIjo7KupL5vVq5D8G58PVHMFy0HB8rl86UZGAQifvNgHv26uY68GJp0ZZ2-SVifxLV5D9rAXUscCAif4lbsBk21gWSdfkXCN3I4RYIrj43Lz2qbHX28FIKc3MzPKGtLdSQ5lIUJrHIu2ELpmXb67CSCmOlIngtGlWZ4yqTskaUo54lUYV1UztyO_eaMQOP4LClolYI3w4iVjYUhmDv0gY-mF]--></g></svg>